<svg width="37" height="37" viewBox="0 0 37 37" fill="none" xmlns="http://www.w3.org/2000/svg">
<path d="M30.9029 16.7655C31.0879 16.9582 31.1727 17.2357 31.0956 17.5133C30.4712 19.7487 29.5462 22.2385 28.4285 24.7129C25.7691 30.6175 21.013 36.5144 19.0397 36.5144C18.9241 36.5144 18.8162 36.499 18.716 36.4527C18.4153 36.314 17.4826 35.8977 18.1918 31.1263C18.4693 29.2917 19.2093 25.5839 21.0901 21.406C22.2156 18.9239 23.472 16.5882 24.7285 14.638C24.8827 14.4068 25.1447 14.2834 25.4068 14.2911C25.8 13.4895 26.2316 12.6184 26.6556 11.7705C27.2838 12.565 28.096 13.1947 29.0221 13.6051C29.8391 13.9751 30.7487 14.1755 31.6506 14.1755C31.7585 14.1755 31.8664 14.1755 31.9744 14.1678C31.6198 15.0389 31.2421 15.9407 30.9029 16.7655ZM37.0002 4.6788C37.0079 6.49027 36.6379 8.58694 36.1061 9.76633C35.5727 10.9442 34.5937 11.8624 33.384 12.3191C32.1744 12.7758 30.8329 12.7337 29.6541 12.2022C29.0702 11.9417 28.5439 11.5676 28.1058 11.1018C27.6678 10.636 27.3268 10.0877 27.1027 9.48883C26.6402 8.2709 26.6787 6.94506 27.2183 5.75797C28.2743 3.84629 29.4923 3.50712 30.5637 3.2065C31.72 2.89045 32.8146 2.58212 34.1558 0.369812C34.3563 0.0383515 34.7725 -0.0926911 35.1271 0.0691849C36.6688 0.762939 37.0002 2.95983 37.0002 4.6788ZM25.6612 10.0361C25.1636 8.73934 25.104 7.31532 25.4916 5.98151C24.8056 5.36484 24.0733 4.83296 23.3024 4.36275C21.0285 2.98295 18.4153 2.18899 15.702 2.13503C11.5394 2.05795 7.59275 3.61504 4.61732 6.52881C1.64189 9.45028 0 13.3507 0 17.521C0 23.2714 3.16814 28.4977 8.26338 31.1571C8.85599 31.4751 9.51793 31.6419 10.1905 31.6427C10.969 31.6427 11.7553 31.4192 12.4567 30.9798C13.7286 30.1781 14.4532 28.8292 14.407 27.3569C14.3222 24.8131 15.1547 22.7087 16.7503 21.4368C17.6368 20.7354 18.7314 20.3191 19.9493 20.2035C21.0285 17.8601 22.2387 15.6632 23.4335 13.8055C23.6647 13.4509 23.9731 13.1811 24.3277 13.0038C24.7747 12.102 25.2604 11.1076 25.7306 10.1903C25.6997 10.144 25.6843 10.0901 25.6612 10.0361ZM8.65651 23.3022C7.25359 23.3022 6.12816 22.1691 6.12816 20.7739C6.12816 20.4424 6.19346 20.1141 6.32033 19.8078C6.4472 19.5015 6.63315 19.2232 6.86757 18.9888C7.10199 18.7544 7.38029 18.5684 7.68658 18.4416C7.99286 18.3147 8.32114 18.2494 8.65266 18.2494C8.98418 18.2494 9.31245 18.3147 9.61874 18.4416C9.92503 18.5684 10.2033 18.7544 10.4377 18.9888C10.6722 19.2232 10.8581 19.5015 10.985 19.8078C11.1119 20.1141 11.1772 20.4424 11.1772 20.7739C11.1772 22.1691 10.0517 23.3022 8.65651 23.3022ZM10.0132 14.6766C8.61026 14.6766 7.48484 13.5434 7.48484 12.1482C7.48484 10.753 8.61026 9.61216 10.0132 9.61216C11.4084 9.61216 12.5338 10.753 12.5338 12.1482C12.5338 13.5434 11.4084 14.6766 10.0132 14.6766ZM18.8624 13.3199C17.4595 13.3199 16.3341 12.1791 16.3341 10.7915C16.3341 9.39633 17.4595 8.25548 18.8624 8.25548C20.2576 8.25548 21.383 9.39633 21.383 10.7915C21.383 12.1791 20.2576 13.3199 18.8624 13.3199Z" fill="#CB950A"/>
</svg>
