<svg width="39" height="38" viewBox="0 0 39 38" fill="none" xmlns="http://www.w3.org/2000/svg">
<path d="M32.3953 26.4626H22.8092V13.7955H26.8722C26.8261 10.3394 26.1778 6.82229 25.077 4.08804C24.0618 1.56642 22.7397 0 21.6266 0C20.5135 0 19.1914 1.56642 18.1762 4.08804C17.0755 6.82221 16.4272 10.3394 16.3811 13.7955H20.4441V26.4626H12.8432L9.37164 22.9912C6.88329 20.5028 2.83459 20.5028 0.346317 22.9912C0.124573 23.2129 0 23.5137 0 23.8273C0 24.1409 0.124573 24.4417 0.346317 24.6635L8.89073 33.2079C8.87233 33.253 8.8567 33.2993 8.8439 33.3463L8.00673 36.515C7.83991 37.1464 8.21659 37.7936 8.848 37.9604C8.94923 37.9872 9.05085 37.9999 9.15082 37.9999C9.67453 37.9999 10.1533 37.6493 10.2934 37.1191L11.1103 34.0269H33.9535V36.8171C33.9535 37.4702 34.483 37.9997 35.1361 37.9997C35.7892 37.9997 36.3186 37.4702 36.3186 36.8171V34.027H37.5945C38.2476 34.027 38.7771 33.4975 38.7771 32.8444C38.7772 29.3255 35.9143 26.4626 32.3953 26.4626Z" fill="#1E9CCA"/>
</svg>
